<?xml version="1.0" standalone="no"?>
<!DOCTYPE svg PUBLIC "-//W3C//DTD SVG 20010904//EN"
 "http://www.w3.org/TR/2001/REC-SVG-20010904/DTD/svg10.dtd">
<svg version="1.0" xmlns="http://www.w3.org/2000/svg"
 width="1024.000000pt" height="1024.000000pt" viewBox="0 0 1024.000000 1024.000000"
 preserveAspectRatio="xMidYMid meet">

<g transform="translate(0.000000,1024.000000) scale(0.100000,-0.100000)"
fill="#000000" stroke="none">
<path d="M4865 9880 c-263 -20 -487 -64 -730 -145 -910 -301 -1513 -976 -1680
-1880 -38 -209 -48 -358 -42 -638 6 -250 14 -339 66 -657 39 -240 51 -360 66
-686 23 -502 38 -598 191 -1224 52 -212 121 -522 154 -690 83 -422 132 -569
252 -768 140 -231 439 -529 849 -844 284 -218 473 -327 635 -368 257 -64 695
-66 960 -5 86 20 229 83 330 146 88 56 398 285 562 417 115 92 340 308 439
422 200 227 316 479 384 829 16 86 43 226 60 311 17 85 77 349 134 585 155
638 167 719 185 1165 14 354 16 378 66 705 57 377 63 433 71 660 27 827 -271
1543 -847 2030 -407 344 -932 560 -1520 624 -139 15 -447 21 -585 11z m-930
-3176 c244 -31 446 -80 530 -129 55 -32 105 -87 159 -175 72 -116 62 -127 -65
-76 -126 51 -284 88 -654 151 -319 55 -335 57 -475 53 -118 -4 -155 -9 -201
-26 -72 -29 -166 -86 -229 -140 -41 -35 -50 -40 -50 -24 0 32 73 134 137 192
200 181 427 228 848 174z m2767 16 c183 -21 323 -86 443 -205 65 -64 101 -120
121 -185 6 -20 -4 -15 -53 31 -68 63 -192 131 -279 154 -82 21 -282 19 -414
-4 -58 -11 -211 -38 -340 -60 -285 -50 -396 -79 -506 -130 -75 -35 -87 -45
-119 -96 -75 -117 -128 -284 -157 -495 -19 -146 -17 -548 5 -689 18 -114 17
-148 -4 -95 -49 129 -76 409 -65 685 10 266 43 382 160 578 35 58 80 136 100
172 43 81 114 161 170 193 87 51 353 114 571 135 224 23 257 23 367 11z
m-2622 -504 c102 -28 180 -75 259 -155 84 -86 157 -179 148 -188 -4 -3 -44 26
-89 64 -167 140 -231 180 -328 204 -80 19 -260 17 -345 -5 -72 -18 -203 -78
-310 -141 -33 -19 -64 -35 -70 -35 -16 0 87 100 151 146 83 60 180 103 267
120 85 16 237 11 317 -10z m2467 -11 c96 -30 201 -97 285 -181 32 -32 56 -59
53 -62 -2 -2 -48 21 -102 51 -196 112 -287 140 -458 141 -206 0 -275 -30 -509
-226 -39 -32 -73 -58 -78 -58 -20 0 28 64 118 158 81 87 109 108 178 143 151
74 345 87 513 34z m-2877 -381 c25 -25 68 -58 95 -72 47 -25 58 -27 185 -27
124 0 143 3 235 32 120 38 175 45 175 23 0 -5 -6 -10 -12 -10 -7 0 -51 -17
-98 -36 -139 -59 -203 -74 -315 -74 -110 0 -188 16 -263 54 -53 27 -119 77
-139 106 -13 18 -10 20 34 34 26 8 50 15 53 15 3 1 26 -20 50 -45z m3009 22
l33 -12 -52 -47 c-98 -88 -214 -127 -380 -127 -95 0 -164 17 -300 73 -47 19
-94 38 -105 41 -19 7 -19 8 -2 17 12 7 35 5 75 -6 247 -67 243 -66 357 -63
129 5 185 26 250 95 43 45 65 51 124 29z m-2098 -1150 c-33 -75 -45 -165 -31
-229 13 -64 56 -129 100 -152 16 -8 30 -20 30 -25 0 -34 -139 25 -174 73 -17
24 -21 44 -21 115 0 74 4 96 27 144 27 58 77 132 85 125 2 -2 -5 -25 -16 -51z
m1088 2 c43 -64 81 -170 81 -223 0 -51 -29 -114 -67 -146 -36 -30 -105 -54
-130 -44 -16 6 -16 8 7 23 118 77 148 207 87 375 -14 37 -22 67 -18 67 3 0 22
-23 40 -52z m-778 -322 c35 -18 91 -47 123 -65 97 -51 136 -43 318 63 65 38
135 45 171 16 15 -12 27 -24 27 -28 0 -4 -28 -7 -62 -7 -70 -1 -117 -21 -203
-85 -125 -93 -158 -92 -297 3 -107 73 -160 92 -225 82 -34 -5 -43 -3 -43 9 0
24 41 46 86 46 28 0 63 -11 105 -34z m113 -651 c95 -31 123 -31 211 0 39 14
84 25 101 25 56 0 165 -40 355 -131 103 -49 209 -94 237 -99 27 -6 58 -18 68
-26 17 -14 12 -15 -51 -11 -50 4 -105 18 -194 52 -291 108 -403 129 -533 100
-76 -18 -84 -18 -161 -2 -152 32 -205 22 -575 -108 -106 -36 -144 -45 -185
-43 -48 3 -50 4 -27 15 14 6 49 19 79 28 29 9 131 53 225 97 180 86 290 127
342 128 17 0 66 -11 108 -25z m-37 -321 c138 -15 161 -15 328 1 139 13 221 16
363 10 101 -4 180 -11 175 -15 -11 -9 -118 -27 -283 -45 -74 -9 -181 -22 -236
-30 -146 -21 -293 -19 -494 9 -96 14 -228 32 -292 41 -126 16 -148 22 -148 36
0 16 428 10 587 -7z m-196 -361 c111 -24 145 -27 329 -27 202 -1 280 7 414 40
160 41 28 -38 -142 -84 -88 -23 -114 -26 -272 -26 -160 0 -182 3 -260 26 -97
30 -166 59 -195 82 -27 21 -17 20 126 -11z"/>
<path d="M2095 6347 c-41 -41 -55 -102 -55 -245 0 -134 17 -236 69 -427 32
-115 44 -181 52 -280 18 -245 64 -405 181 -640 104 -208 183 -307 272 -345 40
-17 106 -33 106 -26 0 7 -70 339 -115 546 -69 317 -79 389 -95 700 -14 273
-42 422 -105 563 -47 106 -147 187 -233 187 -36 0 -50 -6 -77 -33z"/>
<path d="M7975 6363 c-98 -52 -136 -105 -189 -263 -42 -128 -62 -262 -75 -525
-12 -226 -36 -403 -79 -585 -17 -69 -44 -197 -62 -285 -28 -143 -51 -247 -66
-297 -4 -15 1 -18 28 -17 125 3 245 132 372 400 105 222 147 377 166 620 8
102 20 171 50 284 53 195 70 296 70 414 0 188 -42 271 -138 271 -26 -1 -60 -8
-77 -17z"/>
<path d="M3307 2810 c5 -19 8 -177 7 -350 0 -273 -3 -334 -22 -455 -69 -440
-217 -745 -484 -1001 -220 -210 -478 -352 -925 -509 -106 -38 -193 -72 -193
-77 0 -4 1542 -8 3427 -8 2048 0 3423 4 3418 9 -6 5 -81 34 -169 65 -505 179
-797 347 -1020 587 -231 249 -362 563 -428 1024 -14 100 -18 558 -5 668 l8 68
-148 -135 c-378 -344 -741 -624 -937 -723 -120 -61 -287 -110 -436 -129 -163
-20 -511 -15 -656 10 -101 17 -266 72 -358 118 -180 90 -737 530 -1009 797
-76 75 -77 75 -70 41z"/>
</g>
</svg>
