<?xml version="1.0" standalone="no"?>
<!DOCTYPE svg PUBLIC "-//W3C//DTD SVG 20010904//EN"
 "http://www.w3.org/TR/2001/REC-SVG-20010904/DTD/svg10.dtd">
<svg version="1.0" xmlns="http://www.w3.org/2000/svg"
 width="1024.000000pt" height="1024.000000pt" viewBox="0 0 1024.000000 1024.000000"
 preserveAspectRatio="xMidYMid meet">

<g transform="translate(0.000000,1024.000000) scale(0.100000,-0.100000)"
fill="#000000" stroke="none">
<path d="M4748 9240 c-727 -70 -1327 -330 -1734 -752 -341 -355 -563 -831
-639 -1378 -22 -157 -31 -595 -15 -743 42 -393 134 -684 348 -1107 138 -275
208 -431 262 -586 163 -474 172 -878 30 -1454 -65 -264 -190 -627 -322 -939
l-61 -144 24 -18 c49 -38 682 -349 891 -438 787 -334 1624 -566 2267 -627 85
-8 85 -16 1 96 -112 150 -173 267 -211 410 -33 121 -33 377 -1 565 77 447 203
740 365 851 128 88 236 100 512 55 355 -56 627 -68 770 -31 132 34 221 106
276 224 58 126 58 245 -2 416 -51 148 -36 201 90 304 82 68 100 95 101 146 0
41 -36 122 -74 167 l-27 32 43 11 c80 22 148 98 148 166 0 14 -23 83 -51 152
-72 178 -71 244 5 284 10 6 69 23 130 38 180 44 261 99 286 191 24 88 -7 160
-182 419 -198 295 -342 563 -373 693 -22 95 -18 160 20 311 44 176 56 301 44
459 -46 610 -235 1108 -561 1477 -339 384 -887 643 -1558 736 -132 18 -661 28
-802 14z m-543 -2645 c85 -22 143 -53 197 -103 41 -39 108 -128 108 -145 0 -3
-36 19 -80 49 -187 129 -348 162 -505 103 -110 -41 -178 -136 -207 -289 -23
-122 12 -373 76 -543 41 -109 135 -283 199 -370 33 -45 102 -123 152 -173 156
-155 300 -206 434 -155 30 11 56 19 58 17 9 -9 -48 -74 -82 -94 -34 -19 -51
-22 -115 -20 -149 6 -298 106 -472 318 -197 241 -329 574 -345 875 -8 163 36
314 120 411 41 46 139 102 212 120 71 17 181 17 250 -1z m2984 -159 c7 -8 11
-27 9 -42 -3 -24 -10 -30 -48 -39 -42 -10 -44 -13 -48 -50 -4 -50 -17 -93 -51
-164 l-26 -56 -6 123 c-4 68 -9 125 -11 128 -6 5 -162 -19 -296 -47 -52 -10
-97 -18 -98 -16 -6 6 157 93 219 117 99 39 189 59 268 59 55 1 80 -3 88 -13z"/>
</g>
</svg>
