<?xml version="1.0" standalone="no"?>
<!DOCTYPE svg PUBLIC "-//W3C//DTD SVG 20010904//EN"
 "http://www.w3.org/TR/2001/REC-SVG-20010904/DTD/svg10.dtd">
<svg version="1.0" xmlns="http://www.w3.org/2000/svg"
 width="1024.000000pt" height="1536.000000pt" viewBox="0 0 1024.000000 1536.000000"
 preserveAspectRatio="xMidYMid meet">

<g transform="translate(0.000000,1536.000000) scale(0.100000,-0.100000)"
fill="#000000" stroke="none">
<path d="M4950 14594 c-175 -37 -331 -158 -409 -315 -59 -120 -75 -215 -67
-395 l6 -142 -30 -6 c-78 -15 -80 -197 -4 -353 23 -47 66 -95 94 -105 6 -2 15
-35 21 -73 12 -89 32 -151 68 -207 27 -43 29 -53 36 -200 8 -180 6 -188 -75
-261 -56 -50 -170 -111 -395 -212 -199 -89 -284 -120 -385 -139 -98 -18 -222
-74 -305 -137 -121 -91 -230 -298 -271 -516 -14 -74 -15 -114 -8 -248 13 -248
10 -303 -29 -475 -48 -209 -64 -309 -88 -545 -11 -110 -25 -220 -30 -245 -6
-25 -42 -115 -81 -200 -155 -338 -180 -444 -248 -1030 -42 -364 -97 -619 -155
-710 -13 -21 -59 -68 -102 -106 -144 -127 -207 -196 -246 -270 -41 -80 -120
-193 -208 -301 -80 -97 -78 -133 11 -133 71 1 125 32 232 137 63 62 98 90 98
79 0 -9 -38 -160 -85 -335 -94 -354 -103 -415 -60 -431 29 -11 62 -1 88 27 9
11 35 71 56 134 79 233 119 324 136 307 3 -3 -9 -86 -26 -184 -38 -214 -45
-392 -17 -420 23 -23 64 -11 87 26 10 17 30 92 45 168 38 190 76 345 88 357 7
7 9 -16 4 -75 -28 -387 -28 -400 -16 -430 22 -53 75 -48 105 9 22 43 33 104
55 294 34 299 40 305 50 51 6 -153 10 -179 27 -202 26 -36 68 -41 84 -11 7 13
15 94 20 188 10 217 17 289 40 449 22 155 23 213 7 367 -15 149 -14 152 190
580 145 305 194 415 267 600 103 263 141 418 170 702 13 127 31 213 108 522
52 204 96 373 99 376 3 3 9 -27 12 -67 4 -40 29 -203 56 -363 26 -159 51 -330
55 -380 7 -94 -6 -283 -30 -445 -8 -53 -19 -161 -26 -240 -6 -80 -24 -212 -40
-295 -43 -223 -64 -366 -109 -722 -53 -428 -63 -607 -57 -1018 7 -439 26 -621
127 -1190 58 -326 68 -494 47 -795 -13 -189 -24 -266 -52 -395 -61 -279 -70
-362 -69 -645 0 -278 11 -375 90 -800 19 -102 50 -268 69 -370 50 -270 69
-454 59 -570 -4 -52 -8 -160 -9 -240 -1 -124 -4 -153 -23 -197 -40 -96 -80
-168 -162 -292 -94 -141 -126 -205 -140 -283 -13 -70 4 -133 36 -132 16 0 21
-6 21 -27 0 -52 39 -75 73 -44 15 14 17 12 16 -26 -1 -49 22 -72 53 -52 16 10
20 7 34 -23 21 -42 57 -61 95 -48 22 7 32 22 50 74 18 53 21 58 17 25 -4 -22
-8 -47 -11 -56 -5 -20 55 -76 91 -85 74 -19 165 44 190 130 9 30 25 62 36 72
50 45 62 90 69 249 6 133 10 158 35 220 28 70 29 72 32 325 2 140 3 281 4 314
0 32 -8 83 -17 115 -14 47 -16 85 -10 251 11 364 24 454 111 820 29 124 58
257 64 297 18 119 13 380 -10 538 -11 77 -22 201 -25 275 l-6 135 56 150 c93
247 107 322 126 665 22 414 41 576 115 955 68 352 112 648 140 935 9 87 13
100 35 100 22 0 22 1 51 -240 32 -273 66 -496 114 -740 86 -435 106 -595 125
-975 19 -374 34 -456 127 -704 l55 -146 -5 -130 c-3 -71 -15 -193 -27 -270
-17 -103 -23 -186 -23 -315 -1 -198 3 -225 89 -580 66 -271 80 -357 94 -565
14 -223 13 -396 -4 -464 -11 -43 -14 -125 -12 -361 l2 -305 29 -70 c25 -62 29
-87 34 -225 8 -167 15 -195 71 -255 15 -16 31 -47 34 -68 9 -50 67 -113 117
-129 49 -14 105 1 139 37 22 24 23 28 12 87 -6 34 -10 63 -8 65 2 2 11 -25 21
-59 19 -72 38 -98 70 -98 27 0 72 33 80 60 5 15 12 19 31 14 34 -9 54 12 54
54 0 28 3 33 12 24 30 -30 84 7 76 53 -4 21 -2 24 12 20 28 -9 50 31 50 90 -1
79 -40 171 -137 321 -93 142 -127 204 -165 296 -18 45 -22 78 -26 218 -10 438
-9 455 83 945 126 669 138 774 132 1075 -6 255 -17 348 -73 600 -43 191 -57
350 -56 640 0 241 -2 219 81 700 47 275 77 494 91 674 13 166 13 732 0 906
-23 305 -113 966 -160 1180 -11 52 -25 158 -31 235 -6 77 -19 205 -31 285 -27
198 -34 485 -15 615 22 146 97 595 105 630 11 43 175 -606 197 -773 8 -67 22
-177 30 -244 37 -292 123 -531 405 -1122 141 -296 192 -414 205 -475 4 -18 1
-99 -6 -180 -10 -115 -10 -165 0 -236 34 -253 42 -336 49 -517 9 -207 15 -228
57 -228 52 0 74 68 75 230 1 58 5 125 9 150 7 39 9 42 14 20 4 -14 14 -95 22
-180 19 -193 32 -264 55 -317 31 -70 86 -81 110 -23 11 26 4 249 -14 468 -2
23 0 42 3 42 9 0 61 -218 92 -382 24 -129 45 -174 85 -184 73 -19 82 99 30
406 -19 113 -33 207 -31 209 10 9 35 -23 48 -62 9 -23 41 -114 72 -202 31 -88
64 -168 73 -179 25 -27 58 -37 88 -25 26 9 27 11 21 77 -3 37 -42 202 -86 367
-44 165 -81 307 -81 316 0 10 36 -18 90 -72 103 -102 166 -139 238 -139 90 0
94 34 15 129 -80 94 -165 214 -203 286 -52 97 -84 135 -192 231 -132 116 -170
167 -202 268 -41 129 -83 363 -111 611 -62 548 -102 715 -251 1025 -73 155
-85 204 -109 440 -21 216 -38 326 -87 550 -35 164 -39 197 -36 295 8 278 3
407 -19 492 -53 200 -142 361 -248 446 -82 66 -202 122 -305 143 -119 23 -226
63 -440 161 -264 122 -352 175 -401 244 -19 27 -21 42 -19 191 1 160 1 163 30
209 37 60 58 123 70 212 6 39 11 71 13 72 63 26 96 68 132 171 19 53 25 90 25
157 0 80 -2 90 -25 112 -13 14 -32 25 -42 25 -17 0 -19 12 -18 188 0 179 -1
190 -28 265 -75 212 -236 358 -446 402 -89 18 -253 18 -341 -1z"/>
</g>
</svg>
