<?xml version="1.0" standalone="no"?>
<!DOCTYPE svg PUBLIC "-//W3C//DTD SVG 20010904//EN"
 "http://www.w3.org/TR/2001/REC-SVG-20010904/DTD/svg10.dtd">
<svg version="1.0" xmlns="http://www.w3.org/2000/svg"
 width="1024.000000pt" height="1536.000000pt" viewBox="0 0 1024.000000 1536.000000"
 preserveAspectRatio="xMidYMid meet">

<g transform="translate(0.000000,1536.000000) scale(0.100000,-0.100000)"
fill="#000000" stroke="none">
<path d="M5200 13841 c-86 -28 -150 -82 -191 -162 -55 -108 -69 -238 -94 -854
-8 -203 -20 -433 -25 -510 -25 -334 -30 -464 -30 -865 -1 -370 -9 -562 -24
-578 -11 -10 -79 -3 -101 12 -46 30 -55 66 -76 294 -26 295 -55 555 -84 747
-27 179 -72 559 -110 920 -35 336 -61 434 -137 521 -119 135 -349 99 -434 -67
-50 -99 -57 -159 -51 -449 8 -384 30 -737 98 -1570 30 -373 35 -697 15 -915
-45 -478 -104 -778 -167 -859 -44 -56 -147 -23 -243 78 -58 61 -89 108 -372
572 -50 84 -110 179 -133 212 -184 271 -479 462 -716 464 -93 0 -153 -19 -189
-63 -61 -73 -44 -139 81 -308 115 -155 177 -274 239 -456 41 -122 67 -175 206
-419 179 -314 255 -462 317 -618 83 -209 134 -281 616 -882 473 -590 483 -603
526 -687 49 -99 83 -216 106 -366 33 -219 22 -1046 -23 -1648 -52 -711 -118
-1201 -333 -2500 -157 -945 -163 -985 -196 -1322 l-5 -53 1444 0 1444 0 6 123
c34 699 3 1734 -104 3457 -63 1019 -71 1276 -50 1615 25 396 72 613 223 1020
235 636 368 1315 417 2125 15 243 52 444 175 941 66 265 115 504 185 894 51
285 57 421 21 500 -28 63 -55 93 -106 116 -82 38 -181 15 -243 -55 -67 -76
-89 -139 -188 -541 -89 -358 -265 -922 -370 -1187 -35 -90 -41 -98 -65 -98
-34 0 -73 31 -89 70 -20 47 -7 216 40 520 57 374 67 469 85 780 8 151 29 437
46 635 45 529 42 670 -16 785 -75 148 -263 187 -381 78 -98 -90 -128 -205
-199 -759 -55 -433 -95 -704 -134 -910 -17 -86 -46 -282 -65 -436 -36 -290
-44 -323 -78 -360 -27 -29 -39 -29 -67 1 -56 59 -61 158 -35 666 13 260 13
419 5 1080 -14 979 -15 995 -67 1109 -30 66 -74 115 -128 143 -43 22 -136 32
-176 19z"/>
</g>
</svg>
