<?xml version="1.0" standalone="no"?>
<!DOCTYPE svg PUBLIC "-//W3C//DTD SVG 20010904//EN"
 "http://www.w3.org/TR/2001/REC-SVG-20010904/DTD/svg10.dtd">
<svg version="1.0" xmlns="http://www.w3.org/2000/svg"
 width="1365.000000pt" height="1365.000000pt" viewBox="0 0 1365.000000 1365.000000"
 preserveAspectRatio="xMidYMid meet">

<g transform="translate(0.000000,1365.000000) scale(0.100000,-0.100000)"
fill="#000000" stroke="none">
<path d="M11665 12624 c-274 -39 -604 -131 -804 -225 -513 -241 -793 -722
-876 -1506 -30 -282 -15 -587 51 -1053 l37 -256 -61 -189 c-303 -945 -413
-1509 -462 -2380 -18 -319 -28 -372 -85 -484 -37 -73 -95 -133 -189 -195 -84
-55 -125 -76 -342 -171 -71 -32 -203 -95 -294 -141 -302 -152 -537 -303 -1133
-728 -446 -317 -673 -455 -1127 -682 -372 -185 -561 -269 -875 -389 -321 -121
-445 -150 -616 -143 -133 5 -153 14 -371 170 -346 248 -405 274 -756 333 -177
30 -244 44 -362 80 -47 14 -158 43 -246 65 -89 22 -206 58 -260 81 -176 73
-287 109 -336 109 -65 0 -111 -40 -128 -111 -28 -116 51 -258 210 -378 120
-90 200 -125 415 -180 264 -68 356 -106 398 -162 26 -35 13 -57 -65 -115 -240
-177 -487 -261 -1518 -523 -416 -105 -523 -143 -626 -219 -47 -34 -94 -119
-94 -166 1 -48 35 -113 72 -136 75 -46 146 -38 473 50 250 67 312 80 700 149
377 67 385 68 415 43 20 -17 23 -24 14 -39 -20 -34 -100 -63 -374 -132 -181
-45 -335 -91 -450 -134 -96 -36 -269 -97 -385 -137 -353 -121 -465 -188 -495
-294 -21 -77 8 -161 72 -203 61 -41 125 -31 343 55 190 74 287 105 475 147
266 61 448 108 655 169 121 36 239 68 263 72 62 10 55 -16 -16 -59 -124 -76
-658 -315 -972 -437 -236 -91 -306 -126 -356 -176 -65 -64 -70 -132 -18 -221
31 -54 74 -77 139 -75 59 1 87 11 385 129 124 49 315 125 424 168 227 89 412
177 570 272 128 77 161 83 219 39 41 -31 61 -61 52 -75 -24 -40 -516 -377
-686 -470 -230 -127 -299 -187 -299 -262 0 -82 50 -127 148 -136 141 -13 370
94 812 380 255 165 355 226 417 253 60 27 160 65 588 224 165 61 359 140 430
175 126 61 179 94 485 305 80 55 199 127 265 159 226 111 632 265 1410 536
928 323 1243 451 1860 755 165 82 392 200 505 263 187 104 641 368 665 387 26
19 236 126 327 166 150 65 284 142 344 196 65 60 90 109 279 533 81 182 195
436 252 565 157 351 278 655 428 1070 276 764 346 1104 420 2025 37 463 36
456 162 710 242 485 291 650 298 1000 7 355 -27 556 -142 850 -115 291 -310
575 -456 663 -57 34 -127 47 -202 36z"/>
</g>
</svg>
