<?xml version="1.0" standalone="no"?>
<!DOCTYPE svg PUBLIC "-//W3C//DTD SVG 20010904//EN"
 "http://www.w3.org/TR/2001/REC-SVG-20010904/DTD/svg10.dtd">
<svg version="1.0" xmlns="http://www.w3.org/2000/svg"
 width="1024.000000pt" height="1536.000000pt" viewBox="0 0 1024.000000 1536.000000"
 preserveAspectRatio="xMidYMid meet">

<g transform="translate(0.000000,1536.000000) scale(0.100000,-0.100000)"
fill="#000000" stroke="none">
<path d="M5725 14109 c-33 -5 -88 -22 -121 -39 -91 -44 -132 -105 -158 -232
-16 -79 -59 -224 -126 -433 -42 -129 -200 -689 -336 -1190 -85 -312 -189 -753
-263 -1115 -22 -107 -70 -334 -106 -504 -36 -170 -103 -494 -150 -720 -46
-226 -139 -647 -205 -936 -67 -289 -135 -586 -151 -660 -17 -74 -57 -243 -90
-375 -91 -366 -118 -515 -130 -715 -17 -279 -25 -305 -245 -768 -148 -312
-213 -462 -342 -796 -175 -456 -178 -468 -207 -821 -21 -262 -34 -333 -115
-634 -26 -97 -26 -237 -1 -373 11 -57 27 -157 36 -223 20 -147 44 -245 91
-367 20 -51 58 -158 86 -238 55 -164 82 -211 128 -230 34 -14 55 -8 74 22 12
19 -22 152 -113 443 l-56 180 1 130 c1 134 18 268 59 460 57 266 95 552 95
723 0 88 2 102 16 102 15 0 16 -17 11 -172 -6 -192 -42 -467 -87 -673 -43
-196 -53 -276 -54 -430 0 -138 1 -142 42 -270 24 -71 61 -197 83 -280 23 -82
74 -262 115 -400 40 -137 85 -297 98 -355 45 -188 78 -262 141 -312 24 -19 42
-23 96 -23 57 0 71 4 93 24 53 50 50 73 -59 481 -41 151 -100 374 -132 495
l-58 220 1 160 c1 123 8 209 32 372 55 374 64 558 40 840 -11 136 -9 168 11
147 14 -14 41 -243 48 -399 6 -152 -8 -310 -53 -605 -32 -207 -41 -402 -25
-507 17 -103 47 -222 142 -558 43 -154 97 -361 120 -460 68 -304 120 -508 140
-547 47 -93 159 -87 274 14 57 51 85 90 96 136 14 64 -21 356 -81 677 -62 333
-100 601 -100 702 0 54 9 161 20 238 43 305 52 409 57 641 5 203 3 249 -11
296 -20 68 -20 68 -1 68 8 0 25 -19 37 -43 22 -40 23 -52 22 -257 -1 -223 -11
-372 -44 -639 -27 -207 -26 -270 5 -372 50 -166 85 -327 105 -484 21 -159 74
-463 110 -626 29 -133 75 -244 124 -295 39 -40 47 -44 92 -44 60 0 117 32 181
102 52 57 58 83 73 282 14 184 8 278 -26 414 -29 116 -49 416 -49 722 1 177 4
210 33 360 18 91 41 249 52 352 16 155 30 229 81 430 89 353 107 396 227 535
72 84 108 149 136 245 11 39 22 58 32 58 14 0 15 -8 9 -47 -4 -26 -15 -75 -26
-109 -22 -72 -19 -92 22 -176 41 -82 77 -213 94 -345 12 -89 14 -172 9 -376
-6 -249 -5 -267 16 -356 13 -56 42 -132 71 -191 83 -165 178 -233 332 -234 52
-1 61 2 83 27 34 40 47 100 40 187 -19 230 -19 251 10 460 36 256 36 347 -2
560 -27 158 -29 175 -25 410 9 538 7 635 -17 790 -59 376 -130 561 -347 900
-278 436 -293 606 -125 1424 67 323 177 714 328 1166 123 364 203 573 570
1480 226 558 295 741 549 1465 123 352 269 765 324 917 54 152 99 284 99 293
0 90 -207 281 -493 454 -191 117 -292 156 -632 245 -246 64 -382 92 -531 106
-122 11 -134 11 -219 -1z m404 -10346 c-7 -10 -30 -37 -51 -60 -83 -93 -96
-168 -55 -312 13 -44 22 -81 20 -81 -2 0 -16 26 -30 58 -38 82 -44 201 -13
262 23 45 116 150 133 150 5 0 3 -8 -4 -17z m-1261 -1795 c72 -34 112 -100
112 -186 0 -37 -23 -97 -47 -124 -30 -33 -30 -18 0 41 25 51 28 66 22 109 -11
79 -35 109 -120 147 -41 19 -75 37 -75 41 0 9 61 -7 108 -28z m-687 -66 c62
-40 137 -126 170 -197 29 -60 34 -90 23 -132 -10 -37 -20 -26 -16 17 8 81 -95
238 -197 300 -38 23 -52 40 -33 40 4 0 28 -13 53 -28z"/>
</g>
</svg>
