<?xml version="1.0" standalone="no"?>
<!DOCTYPE svg PUBLIC "-//W3C//DTD SVG 20010904//EN"
 "http://www.w3.org/TR/2001/REC-SVG-20010904/DTD/svg10.dtd">
<svg version="1.0" xmlns="http://www.w3.org/2000/svg"
 width="1024.000000pt" height="1024.000000pt" viewBox="0 0 1024.000000 1024.000000"
 preserveAspectRatio="xMidYMid meet">

<g transform="translate(0.000000,1024.000000) scale(0.100000,-0.100000)"
fill="#000000" stroke="none">
<path d="M1342 9455 c-123 -63 -297 -330 -383 -587 -53 -157 -70 -259 -76
-445 -10 -306 30 -472 185 -778 106 -209 109 -217 126 -282 9 -33 23 -155 31
-270 55 -771 114 -1041 390 -1773 103 -274 170 -435 310 -745 65 -143 155
-345 201 -450 74 -167 90 -195 132 -235 54 -50 163 -111 296 -164 49 -20 193
-98 320 -175 367 -220 598 -345 923 -499 359 -171 628 -278 1173 -467 671
-233 993 -355 1158 -440 59 -30 168 -100 242 -155 220 -162 269 -186 775 -371
138 -50 275 -103 305 -119 30 -15 134 -79 230 -142 303 -200 492 -300 596
-319 109 -19 184 21 184 98 0 49 -59 108 -162 162 -45 24 -112 61 -149 82 -76
44 -408 278 -428 303 -12 14 -9 21 23 51 49 46 76 45 160 -10 126 -82 297
-162 544 -254 133 -50 291 -112 350 -138 162 -72 231 -63 274 34 25 57 18 102
-24 143 -41 42 -79 60 -295 142 -193 73 -647 278 -714 323 -22 14 -39 30 -39
36 0 17 65 2 274 -62 105 -33 267 -75 359 -94 219 -47 316 -75 462 -137 139
-58 187 -68 234 -44 66 35 91 128 52 192 -42 69 -130 114 -383 198 -90 29
-208 71 -263 93 -109 43 -182 65 -407 118 -194 45 -241 70 -208 110 18 21 48
19 252 -20 101 -18 230 -41 287 -50 57 -9 181 -38 275 -65 224 -62 279 -73
332 -65 59 8 104 59 104 116 0 122 -123 196 -460 275 -58 14 -208 52 -335 85
-565 148 -701 198 -882 326 -68 48 -76 67 -40 100 45 42 124 70 311 114 99 22
147 39 204 72 175 99 272 236 243 344 -27 101 -96 107 -281 26 -119 -53 -182
-74 -285 -93 -33 -6 -109 -27 -169 -46 -67 -22 -173 -45 -271 -59 -89 -13
-191 -35 -229 -48 -85 -31 -194 -97 -338 -205 -156 -117 -181 -127 -298 -126
-111 0 -177 16 -380 89 -205 75 -383 151 -625 269 -398 194 -562 292 -959 575
-552 393 -718 492 -1117 664 -235 101 -323 183 -365 342 -8 28 -18 149 -24
270 -28 604 -122 1090 -342 1767 l-50 156 26 174 c68 452 70 709 10 1022 -96
493 -312 789 -689 941 -163 65 -418 130 -558 141 -65 5 -77 3 -125 -21z"/>
</g>
</svg>
