<?xml version="1.0" standalone="no"?>
<!DOCTYPE svg PUBLIC "-//W3C//DTD SVG 20010904//EN"
 "http://www.w3.org/TR/2001/REC-SVG-20010904/DTD/svg10.dtd">
<svg xmlns="http://www.w3.org/2000/svg" viewBox="0 0 13650 13650">

<g transform="scale(0.075, 0.075)">
<path d="M8200 12819 c-217 -9 -624 -28 -745 -34 -49 -2 -151 -7 -225 -10
-444 -17 -435 -16 -447 -33 -72 -92 -197 -705 -235 -1147 -18 -204 -18 -1189
0 -1375 76 -808 192 -1366 441 -2131 l61 -186 0 -214 c0 -363 18 -495 106
-794 123 -420 132 -485 114 -811 -14 -261 -17 -736 -10 -1844 5 -920 -3 -1041
-90 -1387 -84 -335 -146 -404 -680 -770 -714 -488 -983 -625 -1515 -768 -205
-55 -269 -84 -284 -126 -29 -83 50 -208 171 -270 38 -20 65 -23 228 -30 102
-5 237 -15 300 -24 169 -23 290 -31 430 -29 135 2 278 28 674 118 290 67 325
70 701 66 612 -6 704 -4 784 13 181 40 273 117 337 282 40 102 38 227 -10 485
-92 497 -114 777 -81 1035 36 275 128 798 191 1090 23 103 74 277 144 485 125
374 148 448 190 620 67 269 86 449 77 715 -9 232 -21 333 -73 590 -25 121 -63
307 -85 414 -69 341 -83 453 -83 676 0 179 3 213 27 325 173 817 177 855 177
1622 -1 686 3 719 102 946 190 440 224 548 280 897 8 51 12 184 12 370 0 242
-3 316 -21 450 -27 194 -73 423 -119 593 -44 163 -52 182 -82 193 -28 11 -493
9 -762 -2z"/>
</g>
</svg>
