<?xml version="1.0" standalone="no"?>
<!DOCTYPE svg PUBLIC "-//W3C//DTD SVG 20010904//EN"
 "http://www.w3.org/TR/2001/REC-SVG-20010904/DTD/svg10.dtd">
<svg version="1.0" xmlns="http://www.w3.org/2000/svg"
 width="1024.000000pt" height="1536.000000pt" viewBox="0 0 1024.000000 1536.000000"
 preserveAspectRatio="xMidYMid meet">

<g transform="translate(0.000000,1536.000000) scale(0.100000,-0.100000)"
fill="#000000" stroke="none">
<path d="M3733 13387 c-62 -185 -162 -435 -262 -655 -212 -469 -277 -732 -252
-1014 36 -401 116 -596 367 -898 112 -135 158 -206 183 -283 18 -57 21 -106
30 -617 12 -654 23 -765 122 -1295 22 -115 51 -273 65 -350 13 -77 36 -201 51
-275 22 -118 25 -151 19 -260 -7 -161 -18 -225 -67 -391 -43 -149 -176 -704
-233 -969 -63 -297 -71 -370 -71 -645 0 -288 5 -324 95 -790 33 -171 72 -386
86 -480 32 -220 48 -598 41 -1010 l-5 -310 -76 -269 c-96 -341 -116 -443 -116
-594 0 -227 61 -339 214 -393 102 -35 316 -37 601 -4 411 48 450 47 935 -24
275 -40 419 -51 682 -51 239 0 622 16 732 30 97 12 171 51 207 108 16 25 29
56 29 69 0 37 -36 98 -77 132 -48 40 -101 57 -423 135 -146 36 -297 77 -335
91 -185 69 -635 329 -922 533 -253 179 -310 242 -357 392 -43 135 -49 190 -42
395 12 355 33 565 127 1270 32 248 89 686 124 975 36 289 74 560 85 603 18 67
79 247 224 654 105 295 117 360 125 703 l7 285 82 323 c186 728 245 1165 246
1797 1 463 -16 616 -131 1190 -83 410 -85 469 -36 730 62 321 105 740 107
1035 1 200 -4 223 -50 240 -16 6 -428 10 -1057 10 l-1032 0 -42 -123z"/>
</g>
</svg>
