<?xml version="1.0" standalone="no"?>
<!DOCTYPE svg PUBLIC "-//W3C//DTD SVG 20010904//EN"
 "http://www.w3.org/TR/2001/REC-SVG-20010904/DTD/svg10.dtd">
<svg version="1.0" xmlns="http://www.w3.org/2000/svg"
 width="1024.000000pt" height="1024.000000pt" viewBox="0 0 1024.000000 1024.000000"
 preserveAspectRatio="xMidYMid meet">

<g transform="translate(0.000000,1024.000000) scale(0.100000,-0.100000)"
fill="#000000" stroke="none">
<path d="M3491 9612 c-17 -31 -69 -229 -95 -363 -38 -187 -56 -364 -56 -551 0
-340 56 -590 201 -898 48 -103 73 -169 84 -230 20 -99 25 -315 15 -600 -12
-359 11 -592 99 -987 56 -250 65 -326 58 -467 -8 -146 -33 -302 -93 -581 -25
-115 -54 -259 -65 -320 -27 -146 -36 -426 -19 -577 17 -159 84 -415 178 -678
44 -124 91 -272 105 -330 58 -237 161 -834 172 -995 9 -142 -17 -399 -65 -648
-45 -237 -48 -289 -20 -378 66 -207 215 -264 631 -238 231 14 481 7 594 -15
44 -9 166 -36 270 -61 105 -24 233 -49 285 -56 111 -13 289 -6 409 16 45 9
146 17 224 18 128 2 147 4 187 26 83 43 130 107 130 174 0 55 -28 71 -202 116
-391 101 -586 198 -1093 540 -447 301 -502 358 -560 574 -76 279 -90 502 -79
1232 11 682 9 1010 -6 1244 -14 213 -6 287 55 491 96 318 108 386 110 650 l1
215 41 125 c185 561 272 968 328 1540 35 351 30 958 -11 1280 -33 262 -104
584 -148 669 l-15 28 -208 7 c-114 4 -379 16 -588 26 -209 11 -484 20 -612 20
-216 0 -233 -1 -242 -18z"/>
</g>
</svg>
