<?xml version="1.0" standalone="no"?>
<!DOCTYPE svg PUBLIC "-//W3C//DTD SVG 20010904//EN"
 "http://www.w3.org/TR/2001/REC-SVG-20010904/DTD/svg10.dtd">
<svg version="1.0" xmlns="http://www.w3.org/2000/svg"
 width="1024.000000pt" height="1536.000000pt" viewBox="0 0 1024.000000 1536.000000"
 preserveAspectRatio="xMidYMid meet">

<g transform="translate(0.000000,1536.000000) scale(0.100000,-0.100000)"
fill="#000000" stroke="none">
<path d="M4236 12639 c-3 -78 -13 -176 -22 -218 -40 -203 -165 -347 -449 -518
-241 -146 -437 -231 -1435 -627 -441 -174 -551 -226 -657 -308 -146 -112 -289
-366 -408 -723 -101 -303 -135 -522 -134 -850 0 -110 4 -254 9 -320 19 -246
23 -488 11 -595 -26 -226 -112 -692 -212 -1147 -50 -230 -63 -268 -150 -450
-217 -453 -288 -729 -374 -1453 -70 -589 -304 -2239 -354 -2498 l-8 -42 439 2
440 3 48 191 c107 424 214 709 507 1353 297 653 478 1129 576 1516 102 399
210 1015 332 1885 25 179 63 444 85 591 22 146 40 269 41 275 5 52 192 -799
263 -1201 95 -531 121 -781 113 -1075 -6 -234 -29 -404 -126 -943 -170 -941
-215 -1301 -281 -2237 -11 -157 -22 -302 -25 -323 l-5 -37 2660 0 2660 0 -5
23 c-3 12 -16 191 -30 397 -61 904 -96 1177 -309 2385 -82 464 -90 539 -90
825 0 186 5 293 18 395 28 223 102 655 167 975 54 263 176 810 183 817 3 4 57
-359 116 -787 116 -838 240 -1552 336 -1932 54 -218 98 -353 221 -683 126
-338 181 -469 358 -855 143 -312 258 -571 291 -659 94 -246 158 -448 224 -706
l49 -190 441 -3 c417 -2 441 -1 436 15 -8 27 -78 481 -140 903 -102 698 -146
1013 -210 1530 -44 350 -79 587 -110 740 -65 328 -107 453 -264 786 -44 93
-87 192 -96 219 -39 123 -180 793 -236 1125 -55 322 -59 430 -34 795 22 308
15 660 -15 830 -42 239 -139 539 -244 755 -104 214 -225 359 -373 447 -99 59
-185 95 -794 338 -667 266 -780 314 -1006 425 -416 206 -589 370 -639 605 -9
39 -18 139 -22 223 l-6 152 -877 0 -877 0 -7 -141z"/>
</g>
</svg>
